<?xml version="1.0" encoding="UTF-8" standalone="no"?>
<svg
   xmlns="http://www.w3.org/2000/svg"
   height="30.156"
   width="133.659"
   viewBox="0 0 44.552999 10.052"
   fill="currentColor"
>
   <path
     d="M 5.026,0 C 2.25,0 0,2.25 0,5.026 c 0,2.776 2.25,5.026 5.026,5.026 2.775,0 5.027,-2.25 5.027,-5.026 C 10.053,2.25 7.801,0 5.026,0 Z m 17.25,0 C 19.5,0 17.25,2.25 17.25,5.026 c 0,2.776 2.25,5.026 5.026,5.026 2.775,0 5.027,-2.25 5.027,-5.026 C 27.303,2.25 25.051,0 22.276,0 Z m 17.25,0 c -2.775,0 -5.025,2.25 -5.025,5.026 0,2.776 2.25,5.026 5.025,5.026 2.775,0 5.027,-2.25 5.027,-5.026 C 44.553,2.25 42.301,0 39.526,0 Z"
     />
</svg>
