<svg height="300px" width="300px" fill="#000000" xmlns="http://www.w3.org/2000/svg" xmlns:xlink="http://www.w3.org/1999/xlink" version="1.1" x="0px" y="0px" viewBox="0 0 100 100" enable-background="new 0 0 100 100" xml:space="preserve"><path d="M91.516,78.617L66.925,57.477c3.569-5.355,5.655-11.782,5.655-18.688C72.58,20.158,57.422,5,38.791,5  C20.159,5,5,20.157,5,38.79c0,18.632,15.159,33.79,33.791,33.79c6.905,0,13.331-2.086,18.688-5.655l21.139,24.591  c3.541,4.357,9.63,4.672,13.601,0.701C96.188,88.247,95.873,82.158,91.516,78.617z M38.79,63.989c-13.895,0-25.2-11.306-25.2-25.199  c0-13.896,11.306-25.2,25.2-25.2c13.896,0,25.198,11.304,25.198,25.2C63.988,52.686,52.686,63.99,38.79,63.989z"/><path d="M58.879,37.496c-1.54-9.51-8.985-17.063-18.47-18.742c-1.316-0.232-2.475,0.788-2.566,2.122  c-0.092,1.333,0.921,2.473,2.229,2.743c7.054,1.46,12.581,7.069,13.94,14.144c0.25,1.313,1.373,2.342,2.709,2.27  C58.057,39.96,59.093,38.815,58.879,37.496z"/></svg>