<?xml version="1.0" encoding="UTF-8" standalone="no"?>
<svg xmlns="http://www.w3.org/2000/svg" height="231" width="231" viewBox="0 0 77 77"><path style="opacity:.5" d="M38.43 20.747l17.849 17.85-17.682 17.682-17.85-17.85z"></path><path  d="M36.295 33.328L7.677 51.701l33.055-8.003 28.617-18.373-33.054 8.003z"></path><path d="M38.513 0C17.243 0 0 17.242 0 38.513c0 21.27 17.243 38.513 38.513 38.513s38.513-17.244 38.513-38.513C77.026 17.243 59.783 0 38.513 0zm2.449 74.08l-2.293-2.536-2.605 2.535C18.398 72.832 4.199 58.304 2.945 40.962l2.537-2.605-2.537-2.294C4.194 18.396 18.72 4.198 36.064 2.943l2.293 2.54 2.606-2.54c17.666 1.25 31.864 15.776 33.118 33.12l-2.537 2.606 2.535 2.294C72.832 58.628 58.305 72.826 40.962 74.08z"></path></svg>
