<?xml version="1.0" encoding="UTF-8" standalone="no"?>
<svg 
    role="img" 
    xmlns="http://www.w3.org/2000/svg" 
    width="1000mm"
    height="1000mm"
    viewBox="0 0 1000 1000"
    style="max-width:1.6em; height: auto;">
    
    <path 
        id="path" 
        style="opacity:1;vector-effect:none;fill:#000000;fill-opacity:1;"
        d=" M 150 63C 150 63 150 63 150 63C 150 63 850 63 850 63C 898 63 937 102 937 150C 937 150 937 650 937 650C 937 698 898 738 850 738C 850 738 517 738 517 738C 517 738 353 925 353 925C 343 936 326 941 312 935C 297 930 288 916 287 900C 287 900 287 738 287 738C 287 738 150 738 150 738C 102 738 63 698 63 650C 63 650 63 150 63 150C 63 104 100 65 146 63C 147 63 149 62 150 63M 150 138C 150 138 150 138 150 138C 142 138 138 142 138 150C 138 150 138 650 138 650C 138 658 142 663 150 663C 150 663 325 663 325 663C 346 663 362 679 362 700C 362 700 362 800 362 800C 362 800 472 675 472 675C 479 667 489 663 500 663C 500 663 850 663 850 663C 858 663 862 658 862 650C 862 650 862 150 862 150C 862 142 858 138 850 138C 850 138 150 138 150 138"
        transform="">
    </path>    
</svg>