<?xml version="1.0" encoding="UTF-8" standalone="no"?>
<svg 
    role="img" 
    xmlns="http://www.w3.org/2000/svg" 
    width="1000mm"
    height="1000mm"
    viewBox="0 0 1000 1000"
    style="max-width:1.6em; height: auto;">
    
    <path 
        id="path" 
        style="opacity:1;vector-effect:none;fill:#000000;fill-opacity:1;"
        d=" M 169 738C 169 738 169 812 169 812C 169 812 831 812 831 812C 831 812 831 738 831 738C 831 738 169 738 169 738M 156 663C 156 663 844 663 844 663C 878 663 906 691 906 725C 906 725 906 825 906 825C 906 859 878 887 844 887C 844 887 156 887 156 887C 122 887 94 859 94 825C 94 825 94 725 94 725C 94 691 122 663 156 663M 169 462C 169 462 169 538 169 538C 169 538 831 538 831 538C 831 538 831 462 831 462C 831 462 169 462 169 462M 156 387C 156 387 844 387 844 387C 878 387 906 416 906 450C 906 450 906 550 906 550C 906 584 878 613 844 613C 844 613 156 613 156 613C 122 613 94 584 94 550C 94 550 94 450 94 450C 94 416 122 387 156 387M 169 188C 169 188 169 262 169 262C 169 262 831 262 831 262C 831 262 831 188 831 188C 831 188 169 188 169 188M 156 113C 156 113 844 113 844 113C 878 113 906 141 906 175C 906 175 906 275 906 275C 906 309 878 337 844 337C 844 337 156 337 156 337C 122 337 94 309 94 275C 94 275 94 175 94 175C 94 141 122 113 156 113"
        transform="">
    </path>    
</svg>