<svg version="1" xmlns="http://www.w3.org/2000/svg" width="933.333" height="933.333" viewBox="0 0 700.000000 700.000000"><path d="M327.8.5c-.1.1-4.1.5-8.8.9-4.7.4-9.6.8-11 1-1.4.2-4.7.7-7.3 1.1-2.7.4-5.6.8-6.5 1-1 .1-3.7.6-6.2.9-2.5.3-6 1-7.7 1.5-1.8.5-3.3.8-3.3.6 0-.3-1.1 0-2.6.5-1.4.6-3.9 1.2-5.7 1.5C238 15 181.5 40 152 61.3c-3.2 2.3-6.8 4.9-8 5.7-1.3.8-5.9 4.4-10.4 7.9-48.4 38.3-86 88.5-108.6 145.2-6.8 16.9-14.5 42-16.6 53.7-.3 1.5-1 4.7-1.5 7.2-1.6 6.7-1.8 7.8-2.3 12.4-.3 2.2-.8 5.2-1.1 6.6-.5 2.8-1 7-2.2 20-1.5 16.2-.8 59.1 1.2 71.1.2 1.3.6 4.6.9 7.4 1.2 10.5 3.5 22.2 7.2 37 2.6 10.4 8.2 28.9 9.4 31.5.5.8 2.5 6 4.5 11.5 6.3 16.9 21.3 46.1 31.4 61.5 43.8 66.4 105.8 115 179.6 140.7 5.5 2 11.5 3.9 13.3 4.4 1.7.5 4.9 1.4 7 1.9 2 .6 4.4 1.2 5.2 1.4.8.2 3.5.9 6 1.6 5.3 1.4 6.1 1.6 16 3.5 9.7 1.8 12.5 2.3 18 3 2.5.3 5.6.7 6.9 1 13.5 2.6 69.5 2.6 83.9.1 1.9-.4 8.9-1.4 14.2-2.1 1.9-.3 4.6-.7 6-1 1.4-.3 4.1-.8 6-1.1 5.2-.9 29.4-7.1 38.2-9.9 23-7.2 53.2-20.7 71.3-31.8 32.5-20 59.9-42.3 80.7-65.5 2.8-3.1 6.5-7.3 8.2-9.2 8.9-9.9 25-32.4 34.1-47.4 17.9-29.9 34.3-71 41.1-103.1 1.7-8.1 5.3-29.2 5.9-34.5.4-3.6.9-8.1 1.2-10 .8-7.2 1-51.8.2-60.2-1.3-14.1-2.2-20.8-3.9-30.8-.6-3.6-1.3-7.9-1.6-9.5-.3-1.7-2.1-9.1-3.9-16.5-17.6-71.2-57.7-135.2-115-183.6-9.7-8.1-29.4-22.6-36.7-26.9-.9-.5-4.8-2.9-8.5-5.1-9.6-5.9-24.6-13.6-35.5-18.4-5.1-2.3-11.1-5-13.3-6-11.3-5-41.4-14.1-58-17.5-4.4-.9-8.9-1.9-10-2.1-1.1-.2-3.8-.6-6-.9-2.2-.3-5.1-.7-6.5-1-1.3-.2-5.4-.7-9-1.1-3.6-.3-7.8-.8-9.5-1.1-3.3-.5-53.1-1.3-53.7-.8zm8.3 35.6c4.6 5.1 9.3 10 10.3 11 1.1 1.1 1.8 2.1 1.5 2.3-.2.2-6.1.6-13 1s-13.4.8-14.5 1c-1 .2-5 .7-8.9 1.1-21.1 2.1-50.3 9.7-73.4 19.1-38.4 15.6-71.5 37.5-99.6 65.8-20.3 20.5-32.9 36.6-47.1 60.1-4.7 7.8-17.8 34.6-20.3 41.5-.7 1.9-1.7 4.4-2.1 5.5-3 7.5-8.9 26.4-10.4 33.5-.3 1.4-1.4 6.6-2.5 11.6s-2.5 13.1-3.1 18c-.6 4.9-1.4 10-1.7 11.4-.9 4.6-1.2 48.4-.3 56.5 1.5 14.4 2.1 20 2.5 21.5.3.8.7 3.3 1 5.5.4 2.2 1.3 6.9 2.1 10.5.9 3.6 1.8 7.6 2 9 1.1 5.9 6.6 23.4 10.7 34.3l2.6 6.7-2.4 1.6-2.4 1.6 2 4c1.7 3.4 2.4 3.9 4.5 3.4 2.2-.6 2.8.2 7.3 9.3 15.3 30.5 33.7 55.8 57.8 79.9 11.8 11.6 26.6 24.2 37 31.3 2.6 1.8 5 3.6 5.3 3.9 1.1 1.4 26 16 34.9 20.4 38.6 19.4 85.2 31 126.6 31.5l9 .1-11.5 11.5-11.5 11.6-8.1-.6c-4.5-.3-9-.7-10-.9-1-.2-4.1-.7-6.9-1.1C200.9 656 107.3 587.2 59.6 491.2c-12.9-25.8-24-58.8-28.2-83.2-2.6-15.2-3.2-19.7-4-28.7l-.7-7.3 10.9-11c6-6.1 11.1-11.6 11.3-12.2.2-.6-.3-1.6-1.2-2.3-.9-.6-4.2-3.6-7.4-6.6-3.3-3-7.6-6.9-9.7-8.7l-3.8-3.3.6-7.7c.9-9.7 3.5-26.9 6-38.7 9.8-46.7 36-99.4 69-138.5 34-40.2 81.3-74.7 128.1-93.3 15.4-6.1 22.3-8.7 23.2-8.7.4 0 4.4-1.1 8.8-2.5 14.3-4.6 46.4-10.5 61.1-11.3 3.9-.3 4.3 0 12.5 8.9zm55.1-7.5c2.4.3 8.1 1.2 12.8 2.1 4.7.8 9.6 1.7 11 2 1.4.2 5.2 1.1 8.5 2 3.3.8 6.8 1.7 7.8 1.9.9.2 2.5.6 3.5.8 5.4 1.3 30.3 10.1 39.7 14.1 18.7 8 47.2 23.8 59 32.8.6.4 5.4 4 10.7 8 23 17.3 44.8 39.1 62.8 62.7 22.8 30 39.7 62.1 51.3 97.5 5.4 16.5 10.8 39.1 12.2 51 .3 2.7.8 5.9 1 7 .2 1.1.7 5.4 1 9.6l.7 7.6-11.6 11.9-11.5 11.9-.1-8.5c-.1-4.7-.3-10.1-.5-12-.2-1.9-.6-6.2-.9-9.5-.8-9.2-1.6-15.5-2.6-21-.5-2.8-1.2-6.1-1.4-7.5-.4-2.2-.9-4.6-3.2-15-1.5-7-6.7-23.5-10.8-34.3l-2.5-6.7 2.4-1.6 2.4-1.6-2-3.9c-1.6-3.3-2.4-3.9-4.6-3.7-2.8.3-2.6.7-8.3-11.2-17.4-35.8-46.6-71.8-81-99.6-44-35.6-101.7-59-158-64-3.6-.3-7.8-.7-9.5-.9-1.6-.1-7-.3-12-.4l-9-.1 11.8-11.6 11.9-11.6 7.3.6c4.1.4 9.3.9 11.7 1.2zm-51.7 53.9c4.9 5.3 9.2 9.4 9.6 9.3.4-.2 5.1-4.5 10.4-9.6l9.6-9.4 6.7.7c42.1 4.1 83.5 18.3 119.7 41 6 3.8 11.6 7.5 12.5 8.2.8.7 4.7 3.6 8.7 6.6 31.3 23.3 59.6 56.7 78.9 93.1l5.4 10.3-9.3 2.1c-5 1.2-16.8 4-26.2 6.3-9.3 2.2-17.7 4.2-18.5 4.4-.8.2-10 2.5-20.5 5-10.4 2.6-19.8 4.9-20.8 5.1-1 .1-8.2 1.9-16 3.8-7.8 1.9-20 4.9-27.2 6.6-7.1 1.7-16.6 4-20.9 5.1l-8 1.9-41.8-41.7c-22.9-23-42.1-41.9-42.5-42-.4-.2-36.8 35.7-80.8 79.7l-80 80 11.9 11.9 11.9 11.9-11.4 7.4c-19.5 12.6-26.5 17-40.1 25.8-15.4 9.8-43 27.5-57.1 36.7-5.4 3.5-10.4 6.6-11.1 6.9-1.4.5-8.7-19.9-12.5-35.1-2.3-9.3-5.7-29-6.6-38.7l-.7-6.8 9.4-9.5c5.1-5.3 9.4-10 9.6-10.4.2-.5-3.4-4.2-7.9-8.2-4.5-4.1-8.8-8-9.6-8.8-1.1-1-1.3-2.9-.8-8 .5-6.1 2.7-21.2 4-27.1.3-1.4.8-3.9 1.1-5.5 1.8-9.9 8.5-30.9 14.5-45.6 11.3-27.5 29.8-57.1 49.4-78.8 10.3-11.4 29.5-29.7 35.7-33.9 1.3-.9 2.5-1.8 2.8-2.1 1.7-2 14-10.4 28.4-19.6 5.2-3.2 30.8-16.5 31.9-16.5.3 0 2.2-.8 4.3-1.7 2.2-.9 4.1-1.7 4.4-1.8.3-.1 1.9-.7 3.5-1.4 3.5-1.5 27.1-8.9 30-9.5 1.1-.2 5.4-1.2 9.5-2.1 7.9-1.9 27.9-5 34.1-5.3 3.4-.3 4.2.3 12.4 9.3zm273.8 181.2c5.5 16.5 9.2 31.9 11.2 45.8.4 2.2.8 4.7 1 5.5.2.8.7 4.7 1 8.6l.6 7.1-9.3 9.8c-5.1 5.3-9.4 10-9.6 10.4-.1.4 4.1 4.7 9.3 9.6l9.6 8.8-.6 6.6c-.6 6.4-.9 9.3-2 15.6-.3 1.6-.8 4.6-1.1 6.5-5 30.5-19 66.8-36.7 95.4-6.4 10.4-21.3 30.8-28.3 38.5-43.7 49.2-106.1 83.7-166.9 92.5-18.8 2.7-22.1 2.9-23.6 1.3-.8-.8-4.7-5.1-8.8-9.6-4.1-4.5-7.7-8-8.2-7.9-.4.2-5.1 4.5-10.4 9.6l-9.5 9.4-6.8-.6c-6.4-.7-9.1-1-15.7-2.1-44.4-7.2-85.2-24.4-121.5-50.9-33.2-24.3-63.6-59.7-82.7-96.2l-5.3-10 13.3-3.2c19.1-4.6 37.2-9 70.7-17.2 16.2-3.9 30.6-7.4 32-7.6 1.4-.3 3.2-.7 4-1 .8-.3 2.6-.8 4-1 1.4-.3 7-1.7 12.5-3 5.5-1.4 10.7-2.7 11.5-2.9.8-.2 5.5-1.3 10.5-2.5l8.9-2.1 42.2 42.2 42.3 42.3 80.2-80.2c44.1-44.1 80-80.4 79.8-80.7-.2-.2-5.5-5.6-11.7-11.9l-11.3-11.4 4.3-3c2.4-1.6 13.3-8.7 24.3-15.7s24.6-15.8 30.2-19.4c5.6-3.6 14.2-9.1 19-12.2 17.4-11.1 27.9-17.9 34.8-22.3 3.9-2.5 7.3-4.6 7.6-4.6.4 0 2.7 6.2 5.2 13.7zm43.1 93.3c2.2 1.9 6.8 6.2 10.3 9.4l6.4 6-.5 6.5c-.4 5.9-2.9 24.3-4 29.6-9.3 45.1-23.8 80.6-48.1 117.5-18.9 28.6-46.1 58.5-69.4 76-1.8 1.4-4 3.2-4.9 4.1-2.7 2.5-17.8 12.9-28.7 19.8-12.5 7.8-33.7 18.6-48 24.4-27 11-63.9 20.2-89 22.2l-8.1.6-8.9-9.7c-13.2-14.3-12.9-13.4-4.8-13.5 3.7 0 7.9-.2 9.3-.4 1.4-.1 6.3-.6 11-.9 9.7-.8 11.5-1 26-3.7C520.1 623.5 612.6 536.5 640.9 423c1.6-6.3 3.2-13.3 3.6-15.5.4-2.2.9-4.9 1.1-6 2.6-14.6 4.2-31.2 4.3-44.8.1-5.4.3-5.4 6.5.3z"/></svg>